<?xml version="1.0" encoding="utf-8"?>
<!-- Generator: Adobe Illustrator 26.1.0, SVG Export Plug-In . SVG Version: 6.00 Build 0)  -->
<svg version="1.1" id="Layer_1" xmlns="http://www.w3.org/2000/svg" xmlns:xlink="http://www.w3.org/1999/xlink" x="0px" y="0px"
	 viewBox="0 0 1872.3 304.8" style="enable-background:new 0 0 1872.3 304.8;" xml:space="preserve">
<style type="text/css">
	.st0{fill:#E2DA4D;}
	.st1{fill:#DD1D42;}
	.st2{fill:#FEFFE6;}
	.st3{fill:#FFFFFF;}
	.st4{fill:#E54C71;}
	.st5{fill:#E5456C;}
	.st6{fill:#95D2EC;}
	.st7{fill:url(#SVGID_1_);}
	.st8{fill:url(#SVGID_00000145775922628464420190000001237117984761239997_);}
	.st9{fill:url(#SVGID_00000058583362395900339670000001147135690281061808_);}
	.st10{fill:url(#SVGID_00000009575847127888430600000003771052877686683811_);}
</style>
<g>
	<path class="st3" d="M144.1,235.9V71.3h110.6v28.1h-78.6v42.4h65.4v26h-65.4v68.2H144.1z"/>
	<path class="st3" d="M273.9,66.6H305v130.3c0,4.5,1.1,8,3.2,10.4c2.2,2.5,5.3,3.7,9.3,3.7c1.9,0,3.9-0.3,6.1-0.9
		c2.2-0.6,4.4-1.4,6.4-2.3l4.2,23.6c-4.2,2-9,3.6-14.6,4.6c-5.6,1.1-10.6,1.6-15.1,1.6c-9.7,0-17.3-2.6-22.6-7.8
		c-5.3-5.2-8-12.6-8-22.1V66.6z"/>
	<path class="st3" d="M384.7,238.2c-12.5,0-22-4-28.5-12.1c-6.5-8-9.7-19.9-9.7-35.7v-76h31.1v69.3c0,18.7,6.7,28.1,20.2,28.1
		c6,0,11.9-1.8,17.5-5.4c5.6-3.6,10.2-9.2,13.8-16.6v-75.3h31.1v85.8c0,3.2,0.6,5.6,1.7,7c1.2,1.4,3,2.2,5.7,2.3v26.4
		c-3.1,0.6-5.7,1-7.8,1.2c-2.1,0.2-4,0.2-5.7,0.2c-5.6,0-10.1-1.3-13.6-3.8c-3.5-2.5-5.5-6.1-6.1-10.5l-0.7-9.7
		c-5.4,8.3-12.4,14.6-20.9,18.8C404.3,236.1,394.9,238.2,384.7,238.2z"/>
	<path class="st3" d="M547.2,238.2c-9.7,0-18.5-1.7-26.4-5c-7.9-3.3-14.6-7.8-20.2-13.6c-5.6-5.7-9.9-12.4-12.9-19.9
		c-3-7.6-4.5-15.5-4.5-23.9c0-8.7,1.5-16.8,4.4-24.5c2.9-7.7,7.2-14.4,12.8-20.2c5.6-5.8,12.3-10.4,20.3-13.8
		c8-3.4,16.9-5.1,26.8-5.1c9.9,0,18.7,1.7,26.5,5.1c7.8,3.4,14.5,8,19.9,13.7c5.5,5.7,9.7,12.4,12.5,19.9c2.9,7.6,4.3,15.5,4.3,23.6
		c0,2,0,3.9-0.1,5.8c-0.1,1.9-0.3,3.4-0.6,4.6h-93.9c0.5,4.8,1.6,9,3.5,12.8c1.9,3.7,4.2,6.9,7.2,9.5c2.9,2.6,6.3,4.6,10,6
		c3.7,1.4,7.6,2.1,11.6,2.1c6.2,0,12-1.5,17.5-4.5c5.5-3,9.2-7,11.2-11.9l26.7,7.4c-4.5,9.3-11.6,16.9-21.4,22.8
		C572.5,235.2,560.8,238.2,547.2,238.2z M578.8,164.9c-0.8-9.1-4.1-16.4-10.1-21.9c-6-5.5-13.2-8.2-21.7-8.2
		c-4.2,0-8.1,0.7-11.7,2.2c-3.6,1.5-6.8,3.5-9.6,6.1c-2.8,2.6-5.1,5.8-6.8,9.5c-1.8,3.7-2.8,7.8-3.1,12.3H578.8z"/>
	<path class="st3" d="M742.7,235.9h-31.1v-68.2c0-9.7-1.7-16.8-5.1-21.3c-3.4-4.5-8.1-6.7-14.1-6.7c-3.1,0-6.3,0.6-9.5,1.9
		c-3.2,1.2-6.3,3-9.2,5.2c-2.9,2.2-5.4,4.9-7.8,8c-2.3,3.1-4,6.5-5.1,10.2v70.9h-31.1V114.4h28.1v22.5c4.5-7.7,11-13.8,19.5-18.1
		c8.5-4.3,18.1-6.5,28.7-6.5c7.6,0,13.8,1.4,18.5,4.2c4.8,2.8,8.5,6.4,11.1,10.9c2.6,4.5,4.4,9.6,5.4,15.3c1,5.7,1.5,11.5,1.5,17.4
		V235.9z"/>
	<path class="st3" d="M841.4,229.6c-4.2,1.9-9.3,3.7-15.3,5.6c-6,1.9-12.4,2.8-19,2.8c-4.3,0-8.4-0.5-12.2-1.6
		c-3.8-1.1-7.1-2.8-10-5.2c-2.9-2.4-5.1-5.5-6.8-9.3c-1.7-3.8-2.6-8.4-2.6-13.8v-69.8h-16v-23.9h16V75h31.1v39.4h25.5v23.9h-25.5
		v59.3c0,4.3,1.1,7.4,3.4,9.2c2.2,1.8,5,2.7,8.2,2.7s6.4-0.5,9.5-1.6c3.1-1.1,5.6-2,7.4-2.8L841.4,229.6z"/>
	<path class="st3" d="M849.1,152.4c0-10,1.8-20,5.4-29.8c3.6-9.8,8.9-18.6,15.9-26.3c7-7.7,15.5-14,25.5-18.8
		c10-4.8,21.5-7.2,34.3-7.2c15.1,0,28.2,3.3,39.3,10c11,6.6,19.3,15.3,24.7,26l-24.6,16.9c-2.2-4.6-4.8-8.5-7.9-11.7
		c-3.1-3.2-6.4-5.7-10-7.5c-3.6-1.9-7.3-3.2-11.1-4.1c-3.9-0.8-7.7-1.3-11.4-1.3c-8,0-15,1.6-21,4.9c-6,3.2-10.9,7.5-14.8,12.6
		c-3.9,5.2-6.9,11.1-8.9,17.6c-2,6.6-3,13.1-3,19.6c0,7.3,1.2,14.3,3.5,21c2.3,6.7,5.6,12.6,9.9,17.7c4.2,5.1,9.3,9.2,15.3,12.3
		c5.9,3.1,12.5,4.6,19.6,4.6c3.7,0,7.6-0.5,11.6-1.4c4-0.9,7.8-2.4,11.5-4.4c3.6-2,7-4.6,10.1-7.8c3.1-3.2,5.6-7,7.4-11.5l26.2,15.1
		c-2.6,6.2-6.4,11.6-11.2,16.3c-4.9,4.7-10.4,8.7-16.5,11.9c-6.1,3.2-12.6,5.7-19.6,7.4s-13.8,2.5-20.4,2.5
		c-11.7,0-22.5-2.5-32.2-7.4c-9.7-4.9-18.1-11.4-25.2-19.4c-7-8-12.5-17-16.5-27.1C851.1,173.2,849.1,162.9,849.1,152.4z"/>
	<path class="st3" d="M1128,235.9h-31.1v-68.2c0-9.6-1.8-16.7-5.3-21.2c-3.6-4.6-8.6-6.8-15.1-6.8c-2.8,0-5.7,0.6-8.8,1.9
		c-3.1,1.2-6,3-8.8,5.2c-2.8,2.2-5.3,4.9-7.7,8c-2.3,3.1-4,6.5-5.1,10.2v70.9h-31.1V66.6h31.1v70.2c4.5-7.9,10.5-13.9,18.2-18.2
		c7.7-4.2,16.1-6.4,25.4-6.4c7.9,0,14.3,1.4,19.2,4.1c4.9,2.7,8.8,6.3,11.6,10.8c2.8,4.5,4.7,9.6,5.8,15.3
		c1.1,5.7,1.6,11.6,1.6,17.6V235.9z"/>
	<path class="st3" d="M1155.1,97.5V66.6h31.1v30.8H1155.1z M1155.1,235.9V114.4h31.1v121.5H1155.1z"/>
	<path class="st3" d="M1327.1,235.9h-31.1v-68.2c0-9.7-1.7-16.8-5.1-21.3c-3.4-4.5-8.1-6.7-14.1-6.7c-3.1,0-6.3,0.6-9.5,1.9
		c-3.2,1.2-6.3,3-9.2,5.2c-2.9,2.2-5.4,4.9-7.8,8c-2.3,3.1-4,6.5-5.1,10.2v70.9h-31.1V114.4h28.1v22.5c4.5-7.7,11-13.8,19.5-18.1
		c8.5-4.3,18.1-6.5,28.7-6.5c7.6,0,13.8,1.4,18.5,4.2c4.8,2.8,8.5,6.4,11.1,10.9c2.6,4.5,4.4,9.6,5.4,15.3c1,5.7,1.5,11.5,1.5,17.4
		V235.9z"/>
	<path class="st3" d="M1410.6,238.2c-9.7,0-18.5-1.7-26.4-5c-7.9-3.3-14.6-7.8-20.2-13.6c-5.6-5.7-9.9-12.4-12.9-19.9
		c-3-7.6-4.5-15.5-4.5-23.9c0-8.7,1.5-16.8,4.4-24.5c2.9-7.7,7.2-14.4,12.8-20.2c5.6-5.8,12.3-10.4,20.3-13.8
		c8-3.4,16.9-5.1,26.8-5.1c9.9,0,18.7,1.7,26.5,5.1c7.8,3.4,14.5,8,19.9,13.7c5.5,5.7,9.7,12.4,12.5,19.9c2.9,7.6,4.3,15.5,4.3,23.6
		c0,2,0,3.9-0.1,5.8c-0.1,1.9-0.3,3.4-0.6,4.6h-93.9c0.5,4.8,1.6,9,3.5,12.8c1.9,3.7,4.2,6.9,7.2,9.5c2.9,2.6,6.3,4.6,10,6
		c3.7,1.4,7.6,2.1,11.6,2.1c6.2,0,12-1.5,17.5-4.5c5.5-3,9.2-7,11.2-11.9l26.7,7.4c-4.5,9.3-11.6,16.9-21.4,22.8
		C1435.9,235.2,1424.2,238.2,1410.6,238.2z M1442.1,164.9c-0.8-9.1-4.1-16.4-10.1-21.9c-6-5.5-13.2-8.2-21.7-8.2
		c-4.2,0-8.1,0.7-11.7,2.2c-3.6,1.5-6.8,3.5-9.6,6.1c-2.8,2.6-5.1,5.8-6.8,9.5c-1.8,3.7-2.8,7.8-3.1,12.3H1442.1z"/>
	<path class="st3" d="M1539,238.2c-10.2,0-20.2-1.6-29.9-4.9c-9.7-3.2-18.1-7.9-25-13.9l11.6-19.5c7.4,5.3,14.6,9.2,21.7,11.9
		c7,2.7,14,4.1,21,4.1c6.2,0,11-1.2,14.6-3.5c3.6-2.3,5.3-5.6,5.3-10c0-4.3-2.1-7.5-6.3-9.5c-4.2-2-11-4.3-20.4-7
		c-7.9-2.2-14.6-4.2-20.2-6.3c-5.6-2-10-4.3-13.4-6.8c-3.4-2.6-5.9-5.5-7.4-8.8c-1.5-3.3-2.3-7.3-2.3-11.9c0-6.2,1.2-11.7,3.6-16.7
		c2.4-4.9,5.8-9.2,10.1-12.6c4.3-3.5,9.4-6.1,15.2-8s12.1-2.8,18.9-2.8c9.1,0,17.7,1.3,25.6,3.9c8,2.6,15.3,6.9,21.9,12.8
		l-12.5,18.8c-6.2-4.6-12.2-8-18-10.2c-5.8-2.2-11.6-3.2-17.3-3.2c-5.3,0-9.7,1.1-13.2,3.2c-3.6,2.2-5.3,5.6-5.3,10.4
		c0,2.2,0.4,3.9,1.3,5.3c0.8,1.4,2.2,2.6,4.1,3.7c1.9,1.1,4.3,2.1,7.3,3.1c3,1,6.8,2,11.2,3.1c8.3,2.2,15.5,4.3,21.4,6.5
		c5.9,2.2,10.8,4.6,14.6,7.4c3.8,2.8,6.6,6,8.3,9.6c1.8,3.6,2.7,8,2.7,13.1c0,11.9-4.4,21.3-13.2,28.2
		C1566.1,234.8,1554.2,238.2,1539,238.2z"/>
	<path class="st3" d="M1664.7,238.2c-9.7,0-18.5-1.7-26.4-5c-7.9-3.3-14.6-7.8-20.2-13.6c-5.6-5.7-9.9-12.4-12.9-19.9
		c-3-7.6-4.5-15.5-4.5-23.9c0-8.7,1.5-16.8,4.4-24.5c2.9-7.7,7.2-14.4,12.8-20.2c5.6-5.8,12.3-10.4,20.3-13.8
		c8-3.4,16.9-5.1,26.8-5.1c9.9,0,18.7,1.7,26.5,5.1c7.8,3.4,14.5,8,19.9,13.7c5.5,5.7,9.7,12.4,12.5,19.9c2.9,7.6,4.3,15.5,4.3,23.6
		c0,2,0,3.9-0.1,5.8c-0.1,1.9-0.3,3.4-0.6,4.6h-93.9c0.5,4.8,1.6,9,3.5,12.8c1.9,3.7,4.2,6.9,7.2,9.5c2.9,2.6,6.3,4.6,10,6
		c3.7,1.4,7.6,2.1,11.6,2.1c6.2,0,12-1.5,17.5-4.5c5.5-3,9.2-7,11.2-11.9l26.7,7.4c-4.5,9.3-11.6,16.9-21.4,22.8
		C1690,235.2,1678.3,238.2,1664.7,238.2z M1696.2,164.9c-0.8-9.1-4.1-16.4-10.1-21.9c-6-5.5-13.2-8.2-21.7-8.2
		c-4.2,0-8.1,0.7-11.7,2.2c-3.6,1.5-6.8,3.5-9.6,6.1c-2.8,2.6-5.1,5.8-6.8,9.5c-1.8,3.7-2.8,7.8-3.1,12.3H1696.2z"/>
</g>
</svg>
