<?xml version="1.0" encoding="UTF-8"?>
<svg width="700pt" height="700pt" version="1.1" viewBox="0 0 700 700" xmlns="http://www.w3.org/2000/svg" fill="white">
 <path d="m441.7 338.33v151.67c-0.019531 6.1836-2.4805 12.105-6.8555 16.48-4.3711 4.3711-10.293 6.8359-16.477 6.8516h-276.73c-6.1836-0.015625-12.105-2.4805-16.477-6.8516-4.375-4.375-6.8359-10.297-6.8555-16.48v-420c0.019531-6.1836 2.4805-12.105 6.8555-16.48 4.3711-4.3711 10.293-6.8359 16.477-6.8516h276.73c6.1836 0.015625 12.105 2.4805 16.477 6.8516 4.375 4.375 6.8359 10.297 6.8555 16.48v151.67c0 3.0938-1.2266 6.0586-3.418 8.25-2.1875 2.1875-5.1523 3.4141-8.2461 3.4141h-126.2c-11.379-0.26953-22.492 3.4492-31.414 10.52-8.9219 7.0664-15.086 17.035-17.422 28.176-2.3086 13.562 1.4688 27.457 10.332 37.984 8.8594 10.523 21.906 16.617 35.664 16.656h129.04c3.0938 0 6.0586 1.2266 8.2461 3.4141 2.1914 2.1914 3.418 5.1562 3.418 8.25zm133-73.5-61.367-71.164c-5.418-6.3359-13.805-9.3008-22-7.7734-8.1953 1.5234-14.953 7.3047-17.734 15.164-2.7773 7.8594-1.1484 16.605 4.2695 22.941l28.234 32.668h-205.1c-8.3359 0-16.039 4.4453-20.207 11.664s-4.168 16.117 0 23.336 11.871 11.664 20.207 11.664h205.1l-28.234 32.668c-5.3555 6.3438-6.9375 15.055-4.1562 22.875s9.5117 13.574 17.668 15.113c8.1602 1.5352 16.52-1.3789 21.953-7.6562l61.367-71.164c3.6133-4.2266 5.6016-9.6055 5.6016-15.168s-1.9883-10.941-5.6016-15.168z"/>
</svg>
