<?xml version="1.0" encoding="UTF-8"?>
<svg width="700pt" height="700pt" version="1.1" viewBox="0 0 700 700" xmlns="http://www.w3.org/2000/svg" fill="white">
 <path d="m573.44 227.15c0.039063 8.2734-2.3242 16.379-6.7969 23.336-4.4727 6.957-10.863 12.469-18.406 15.867l-50.121 22.68-28 12.602-79.52 36.121 0.003906-0.003906c-25.652 11.949-55.27 11.949-80.922 0l-79.801-36.121-28-12.602-28-12.879v120.96c4.043 2.5391 6.4805 6.9883 6.4414 11.762v28.84c0.035157 3.7227-1.4258 7.3047-4.0625 9.9375-2.6328 2.6367-6.2148 4.0977-9.9375 4.0625h-12.879c-3.7266 0.035156-7.3086-1.4258-9.9414-4.0625-2.6328-2.6328-4.0977-6.2148-4.0586-9.9375v-28.84c-0.039062-4.7734 2.3984-9.2227 6.4375-11.762v-128.8c-0.015625-1.625 0.26562-3.2383 0.83984-4.7578-8.8438-5.5312-15.375-14.098-18.363-24.094-2.9883-10-2.2305-20.742 2.1289-30.223 4.3594-9.4766 12.023-17.047 21.555-21.285l157.64-71.398c25.691-11.762 55.23-11.762 80.922 0l157.64 71.398h-0.003907c7.543 3.3984 13.934 8.9102 18.406 15.867 4.4727 6.957 6.832 15.062 6.7969 23.332zm-171.36 136.08-0.003906 0.003907c-32.934 15.309-70.941 15.309-103.88 0l-96.32-43.398v35.84c0.0625 21.809 10.188 42.371 27.441 55.719 34.695 26.516 77.152 40.879 120.82 40.879s86.121-14.363 120.82-40.879c17.18-13.375 27.203-33.945 27.16-55.719v-36.121l-16.52 7.5586z"/>
</svg>
